<?xml version="1.0" encoding="UTF-8" standalone="no"?>
<!-- Created with Inkscape (http://www.inkscape.org/) -->

<svg
   version="1.1"
   id="svg2"
   width="752"
   height="752"
   viewBox="0 0 752 752"
   xmlns="http://www.w3.org/2000/svg"
   xmlns:svg="http://www.w3.org/2000/svg">
  <defs
     id="defs6" />
  <g
     id="g8">
    <path
       style="fill:#ffffff"
       d="m 352.50953,579.45479 c -34.46716,-4.70288 -65.76424,-20.31266 -90.62659,-45.20107 L 250.61713,522.9761 h -10.16362 -10.16363 l -15.57056,15.38214 c -8.56382,8.46018 -16.55349,15.88518 -17.75483,16.5 -6.80395,3.48212 -16.06485,-1.03373 -18.3321,-8.9392 -1.90871,-6.65527 -0.24937,-9.20132 18.94057,-29.06201 9.88816,-10.23377 19.53087,-19.34353 21.42826,-20.2439 1.91841,-0.91034 5.93515,-1.63703 9.04866,-1.63703 3.07938,0 5.59887,-0.23783 5.59887,-0.52852 0,-0.29068 -1.2914,-3.10318 -2.86979,-6.25 -6.61007,-13.17847 -11.62978,-32.62408 -12.77062,-49.47148 l -0.66023,-9.75 -23.09968,-0.002 c -20.01578,-0.001 -23.55745,-0.23498 -26.5286,-1.75 -10.0366,-5.11779 -10.57663,-19.06855 -0.95798,-24.74845 3.09474,-1.82748 5.50836,-2.02692 27.97995,-2.31212 l 24.59304,-0.31212 1.74292,-8.11076 c 5.00876,-23.30855 15.76337,-46.52186 32.20594,-69.515 l 1.60899,-2.25 h -16.60204 -16.60204 l -6.33872,-5.75 c -31.05294,-28.16841 -33.80674,-31.54268 -32.29954,-39.5767 0.73083,-3.89569 5.99105,-9.23133 10.12331,-10.26846 6.51051,-1.63403 9.17546,0.0571 25.49762,16.17998 l 15.60613,15.41563 h 64.18567 64.18567 v 142.5 c 0,78.375 -0.1125,142.45363 -0.25,142.39696 -0.1375,-0.0567 -4.58765,-0.69489 -9.88922,-1.41827 z M 382.64875,437.9761 v -142 h 64.26293 64.26294 l 14.48706,-14.56848 c 7.96789,-8.01266 15.70222,-15.21266 17.18741,-16 11.21474,-5.94523 24.12814,6.29745 18.37576,17.42132 -0.78315,1.51444 -9.39774,10.37959 -19.14353,19.70034 l -17.71962,16.94682 -18.72729,0.5 -18.72729,0.5 7.82484,11.81553 c 13.00739,19.64121 24.003,43.17359 28.45566,60.89971 l 1.67334,6.66159 25.14389,0.31159 c 23.02403,0.28531 25.42945,0.4802 28.5308,2.31158 9.61865,5.6799 9.07862,19.63066 -0.95798,24.74845 -2.97141,1.51515 -6.51384,1.74865 -26.54979,1.75 l -23.12088,0.002 -0.70774,8.25 c -1.61648,18.84282 -6.64293,38.06616 -13.51088,51.67149 l -3.06842,6.07806 h 6.11327 c 3.50103,0 7.53658,0.67541 9.44417,1.58062 1.832,0.86934 11.51127,10.10044 21.5095,20.51355 19.3101,20.1114 20.77392,22.38088 18.87397,29.26192 -1.8473,6.6904 -9.54878,10.95585 -16.59033,9.18854 -1.72205,-0.43221 -8.9431,-6.78289 -18.90012,-16.62203 l -16.11334,-15.9226 h -10.7736 -10.77359 l -8.6817,8.26177 c -24.94764,23.74092 -55.44846,40.44641 -85.38513,46.76599 -5.05687,1.0675 -10.88181,1.94796 -12.94431,1.95657 l -3.75,0.0157 z m -98,-164.36901 c 0,-6.37671 3.04483,-20.81171 6.00404,-28.46411 5.38286,-13.91985 16.03104,-27.6276 28.66989,-36.90769 l 6.46241,-4.74504 -9.99614,-9.66643 c -7.187,-6.94995 -10.27475,-10.67548 -10.98756,-13.25708 -2.77609,-10.05418 6.44794,-19.17286 16.59736,-16.40779 2.83503,0.77236 7.17913,4.41533 17.80421,14.93064 l 14.0542,13.909 5.33229,-1.01124 c 6.85723,-1.30045 21.27428,-1.298 28.14381,0.005 l 5.35749,1.01602 13.529,-13.4776 c 8.28931,-8.25782 15.00175,-14.08715 17.33168,-15.05146 7.08645,-2.93294 14.58682,0.52138 17.10185,7.8763 2.33524,6.82917 0.87236,9.80532 -10.35937,21.07539 l -10.09126,10.12573 6.41729,4.71191 c 19.9104,14.61923 31.79122,35.83302 34.13945,60.95768 l 0.72434,7.75 h -88.11749 -88.11749 v -3.36901 z"
       id="path116" />
  </g>
</svg>
